<svg xmlns="http://www.w3.org/2000/svg" xmlns:xlink="http://www.w3.org/1999/xlink" width="500" zoomAndPan="magnify" viewBox="0 0 375 374.999991" height="500" preserveAspectRatio="xMidYMid meet" version="1.0"><defs><g/></defs><rect x="-37.5" width="450" fill="#ffffff" y="-37.499999" height="449.999989" fill-opacity="1"/><rect x="-37.5" width="450" fill="#242424" y="-37.499999" height="449.999989" fill-opacity="1"/><g fill="#ffffff" fill-opacity="1"><g transform="translate(-35.440159, 299.249042)"><g><path d="M 36.609375 -139.65625 L 35.703125 -146.890625 C 35.703125 -167.984375 44.894531 -186.816406 63.28125 -203.390625 C 96.125 -232.617188 149.15625 -250.695312 222.375 -257.625 C 233.519531 -258.53125 246.550781 -258.984375 261.46875 -258.984375 C 276.382812 -258.984375 295.289062 -256.796875 318.1875 -252.421875 C 341.09375 -248.054688 359.925781 -240 374.6875 -228.25 C 398.195312 -208.96875 409.953125 -183.734375 409.953125 -152.546875 C 409.953125 -121.359375 400.6875 -92.582031 382.15625 -66.21875 C 363.625 -39.851562 340.046875 -19.4375 311.421875 -4.96875 C 282.796875 9.488281 252.207031 16.71875 219.65625 16.71875 C 187.113281 16.71875 160.75 9.035156 140.5625 -6.328125 C 140.257812 -6.023438 138.828125 -3.460938 136.265625 1.359375 C 133.710938 6.179688 131.078125 10.851562 128.359375 15.375 C 114.503906 37.363281 102.148438 40.375 91.296875 24.40625 C 84.972656 15.0625 81.8125 3.914062 81.8125 -9.03125 C 81.8125 -21.988281 83.164062 -37.660156 85.875 -56.046875 C 86.175781 -57.859375 84.972656 -62.078125 82.265625 -68.703125 C 81.359375 -71.710938 82.410156 -74.722656 85.421875 -77.734375 C 87.835938 -79.546875 91.226562 -81.050781 95.59375 -82.25 C 99.96875 -83.457031 102.984375 -83.457031 104.640625 -82.25 C 106.296875 -81.050781 105.914062 -77.816406 103.5 -72.546875 C 101.09375 -67.273438 99.890625 -62.378906 99.890625 -57.859375 C 99.890625 -53.335938 104.554688 -46.628906 113.890625 -37.734375 C 123.234375 -28.847656 128.960938 -24.101562 131.078125 -23.5 C 138.304688 -41.28125 153.671875 -74.578125 177.171875 -123.390625 C 179.890625 -128.816406 181.25 -132.882812 181.25 -135.59375 C 181.25 -138.300781 180.945312 -140.410156 180.34375 -141.921875 C 181.851562 -150.660156 191.421875 -164.519531 209.046875 -183.5 C 226.671875 -202.488281 240.90625 -211.984375 251.75 -211.984375 C 255.96875 -211.984375 261.238281 -210.550781 267.5625 -207.6875 C 273.894531 -204.820312 277.515625 -200.828125 278.421875 -195.703125 C 278.421875 -193.898438 278.269531 -192.921875 277.96875 -192.765625 C 277.664062 -192.617188 276.910156 -192.847656 275.703125 -193.453125 C 274.503906 -194.054688 273.601562 -194.359375 273 -194.359375 C 263.351562 -194.359375 251.976562 -187.347656 238.875 -173.328125 C 225.769531 -159.316406 212.738281 -141.015625 199.78125 -118.421875 C 176.875 -79.242188 158.492188 -44.59375 144.640625 -14.46875 C 163.316406 -0.90625 183.65625 5.875 205.65625 5.875 C 234.28125 5.875 261.695312 -1.503906 287.90625 -16.265625 C 314.125 -31.035156 335.21875 -48.0625 351.1875 -67.34375 C 377.101562 -98.976562 390.0625 -130.164062 390.0625 -160.90625 C 390.0625 -183.507812 381.097656 -203.695312 363.171875 -221.46875 C 345.242188 -239.25 316.84375 -248.742188 277.96875 -249.953125 C 276.164062 -249.953125 274.359375 -249.953125 272.546875 -249.953125 C 241.804688 -249.953125 209.410156 -244.90625 175.359375 -234.8125 C 141.316406 -224.71875 112.242188 -210.328125 88.140625 -191.640625 C 64.035156 -172.960938 51.984375 -153.523438 51.984375 -133.328125 C 51.984375 -128.210938 53.5625 -123.695312 56.71875 -119.78125 C 59.882812 -115.863281 63.195312 -113.148438 66.65625 -111.640625 C 70.125 -110.128906 74.492188 -108.46875 79.765625 -106.65625 C 85.046875 -104.851562 88.515625 -103.578125 90.171875 -102.828125 C 91.828125 -102.078125 92.804688 -101.25 93.109375 -100.34375 C 93.710938 -97.925781 91.601562 -96.71875 86.78125 -96.71875 C 75.632812 -97.625 64.410156 -101.769531 53.109375 -109.15625 C 41.804688 -116.539062 36.15625 -125.203125 36.15625 -135.140625 C 36.15625 -136.648438 36.304688 -138.15625 36.609375 -139.65625 Z M 97.625 -40.671875 C 97.625 0.00390625 100.488281 20.34375 106.21875 20.34375 C 110.4375 20.34375 116.460938 9.796875 124.296875 -11.296875 C 124.898438 -12.203125 125.203125 -12.804688 125.203125 -13.109375 C 123.085938 -14.910156 118.640625 -19.351562 111.859375 -26.4375 C 105.085938 -33.519531 100.34375 -38.265625 97.625 -40.671875 Z M 97.625 -40.671875 "/></g></g></g></svg>